<svg xmlns="http://www.w3.org/2000/svg" xmlns:xlink="http://www.w3.org/1999/xlink" width="220" zoomAndPan="magnify" viewBox="0 0 165 82.499998" height="110" preserveAspectRatio="xMidYMid meet" version="1.0"><defs><clipPath id="bdd21e30b5"><path d="M 0.496094 0 L 164.503906 0 L 164.503906 82.003906 L 0.496094 82.003906 Z M 0.496094 0 " clip-rule="nonzero"/></clipPath><clipPath id="0b646ec75d"><path d="M 20.652344 19.972656 L 110 19.972656 L 110 61.71875 L 20.652344 61.71875 Z M 20.652344 19.972656 " clip-rule="nonzero"/></clipPath><clipPath id="7db18e7633"><path d="M 101 33 L 109 33 L 109 61.71875 L 101 61.71875 Z M 101 33 " clip-rule="nonzero"/></clipPath><clipPath id="790197bd8b"><path d="M 113 32 L 144 32 L 144 61.71875 L 113 61.71875 Z M 113 32 " clip-rule="nonzero"/></clipPath></defs><g clip-path="url(#bdd21e30b5)"><path fill="#ffffff" d="M 0.496094 0 L 164.503906 0 L 164.503906 82.003906 L 0.496094 82.003906 Z M 0.496094 0 " fill-opacity="1" fill-rule="nonzero"/><path fill="#ffffff" d="M 0.496094 0 L 164.503906 0 L 164.503906 82.003906 L 0.496094 82.003906 Z M 0.496094 0 " fill-opacity="1" fill-rule="nonzero"/></g><g clip-path="url(#0b646ec75d)"><path fill="#000000" d="M 39.871094 48.550781 L 38.417969 48.550781 C 37.445312 48.550781 36.359375 48.589844 35.160156 48.664062 C 33.957031 48.742188 32.820312 48.925781 31.753906 49.214844 C 30.6875 49.503906 29.785156 49.929688 29.050781 50.492188 C 28.3125 51.050781 27.945312 51.832031 27.945312 52.839844 C 27.945312 53.496094 28.089844 54.046875 28.378906 54.492188 C 28.671875 54.933594 29.050781 55.3125 29.515625 55.621094 C 29.980469 55.929688 30.503906 56.152344 31.085938 56.289062 C 31.667969 56.421875 32.25 56.488281 32.832031 56.488281 C 35.238281 56.488281 37.011719 55.921875 38.15625 54.78125 C 39.296875 53.640625 39.871094 52.085938 39.871094 50.113281 Z M 37.253906 28.320312 L 31.785156 28.320312 L 23.582031 19.972656 L 31.492188 19.972656 Z M 40.277344 57.1875 L 40.105469 57.1875 C 39.09375 58.769531 37.816406 59.921875 36.265625 60.632812 C 34.710938 61.347656 33.007812 61.707031 31.144531 61.707031 C 29.863281 61.707031 28.613281 61.53125 27.390625 61.183594 C 26.171875 60.835938 25.082031 60.316406 24.132812 59.621094 C 23.183594 58.925781 22.417969 58.054688 21.835938 57.011719 C 21.253906 55.96875 20.960938 54.75 20.960938 53.359375 C 20.960938 51.851562 21.234375 50.570312 21.777344 49.503906 C 22.320312 48.445312 23.046875 47.554688 23.957031 46.839844 C 24.871094 46.125 25.925781 45.554688 27.128906 45.128906 C 28.332031 44.703125 29.582031 44.386719 30.882812 44.171875 C 32.179688 43.960938 33.492188 43.824219 34.808594 43.765625 C 36.128906 43.707031 37.371094 43.679688 38.535156 43.679688 L 40.277344 43.679688 L 40.277344 42.925781 C 40.277344 41.1875 39.675781 39.882812 38.476562 39.011719 C 37.273438 38.144531 35.742188 37.710938 33.878906 37.710938 C 32.40625 37.710938 31.027344 37.96875 29.746094 38.492188 C 28.46875 39.011719 27.363281 39.71875 26.429688 40.609375 L 22.765625 36.957031 C 24.316406 35.371094 26.128906 34.230469 28.207031 33.535156 C 30.28125 32.839844 32.425781 32.492188 34.636719 32.492188 C 36.613281 32.492188 38.28125 32.714844 39.640625 33.160156 C 40.996094 33.605469 42.121094 34.175781 43.011719 34.871094 C 43.90625 35.566406 44.59375 36.367188 45.078125 37.273438 C 45.5625 38.183594 45.914062 39.101562 46.125 40.027344 C 46.339844 40.957031 46.464844 41.855469 46.503906 42.722656 C 46.542969 43.59375 46.5625 44.355469 46.5625 45.011719 L 46.5625 61.011719 L 40.277344 61.011719 Z M 50.808594 39.101562 L 50.808594 33.1875 L 56.570312 33.1875 L 56.570312 25.132812 L 63.550781 25.132812 L 63.550781 33.1875 L 71.230469 33.1875 L 71.230469 39.101562 L 63.550781 39.101562 L 63.550781 51.273438 C 63.550781 52.664062 63.8125 53.765625 64.335938 54.578125 C 64.859375 55.390625 65.898438 55.796875 67.449219 55.796875 C 68.070312 55.796875 68.746094 55.726562 69.484375 55.59375 C 70.222656 55.457031 70.804688 55.234375 71.230469 54.925781 L 71.230469 60.78125 C 70.492188 61.128906 69.589844 61.367188 68.523438 61.503906 C 67.457031 61.640625 66.515625 61.707031 65.703125 61.707031 C 63.839844 61.707031 62.316406 61.503906 61.136719 61.097656 C 59.953125 60.691406 59.019531 60.074219 58.34375 59.242188 C 57.664062 58.414062 57.199219 57.378906 56.945312 56.144531 C 56.695312 54.90625 56.570312 53.476562 56.570312 51.851562 L 56.570312 39.101562 Z M 78.136719 33.1875 L 85.121094 33.1875 L 85.121094 37.59375 L 85.234375 37.59375 C 86.011719 35.972656 87.117188 34.714844 88.554688 33.828125 C 89.988281 32.9375 91.636719 32.492188 93.5 32.492188 C 93.925781 32.492188 94.34375 32.53125 94.75 32.609375 C 95.15625 32.6875 95.574219 32.785156 96 32.898438 L 96 39.625 C 95.417969 39.46875 94.84375 39.34375 94.285156 39.246094 C 93.722656 39.152344 93.167969 39.101562 92.625 39.101562 C 90.996094 39.101562 89.6875 39.402344 88.699219 40 C 87.710938 40.601562 86.953125 41.285156 86.429688 42.058594 C 85.90625 42.832031 85.554688 43.605469 85.382812 44.375 C 85.207031 45.148438 85.121094 45.730469 85.121094 46.113281 L 85.121094 61.011719 L 78.136719 61.011719 Z M 100.378906 24.148438 C 100.378906 23.027344 100.792969 22.050781 101.628906 21.21875 C 102.460938 20.390625 103.519531 19.972656 104.800781 19.972656 C 106.078125 19.972656 107.15625 20.371094 108.027344 21.160156 C 108.902344 21.953125 109.335938 22.949219 109.335938 24.148438 C 109.335938 25.34375 108.902344 26.339844 108.027344 27.132812 C 107.15625 27.925781 106.078125 28.320312 104.800781 28.320312 C 103.519531 28.320312 102.460938 27.90625 101.628906 27.074219 C 100.792969 26.242188 100.378906 25.269531 100.378906 24.148438 " fill-opacity="1" fill-rule="evenodd"/></g><g clip-path="url(#7db18e7633)"><path fill="#000000" d="M 101.367188 33.1875 L 108.347656 33.1875 L 108.347656 61.011719 L 101.367188 61.011719 Z M 101.367188 33.1875 " fill-opacity="1" fill-rule="evenodd"/></g><g clip-path="url(#790197bd8b)"><path fill="#000000" d="M 120.042969 47.101562 C 120.042969 48.183594 120.226562 49.226562 120.59375 50.230469 C 120.960938 51.238281 121.503906 52.125 122.222656 52.898438 C 122.941406 53.671875 123.804688 54.289062 124.8125 54.753906 C 125.820312 55.214844 126.964844 55.449219 128.246094 55.449219 C 129.523438 55.449219 130.667969 55.214844 131.675781 54.753906 C 132.6875 54.289062 133.546875 53.671875 134.265625 52.898438 C 134.984375 52.125 135.527344 51.238281 135.894531 50.230469 C 136.261719 49.226562 136.449219 48.183594 136.449219 47.101562 C 136.449219 46.019531 136.261719 44.976562 135.894531 43.96875 C 135.527344 42.964844 134.984375 42.078125 134.265625 41.304688 C 133.546875 40.53125 132.6875 39.914062 131.675781 39.449219 C 130.667969 38.984375 129.523438 38.753906 128.246094 38.753906 C 126.964844 38.753906 125.820312 38.984375 124.8125 39.449219 C 123.804688 39.914062 122.941406 40.53125 122.222656 41.304688 C 121.503906 42.078125 120.960938 42.964844 120.59375 43.96875 C 120.226562 44.976562 120.042969 46.019531 120.042969 47.101562 M 113.058594 47.101562 C 113.058594 44.898438 113.457031 42.898438 114.253906 41.101562 C 115.046875 39.304688 116.125 37.769531 117.480469 36.492188 C 118.839844 35.21875 120.449219 34.234375 122.3125 33.535156 C 124.171875 32.84375 126.148438 32.492188 128.246094 32.492188 C 130.339844 32.492188 132.316406 32.84375 134.179688 33.535156 C 136.042969 34.234375 137.648438 35.21875 139.007812 36.492188 C 140.367188 37.769531 141.441406 39.304688 142.238281 41.101562 C 143.03125 42.898438 143.429688 44.898438 143.429688 47.101562 C 143.429688 49.304688 143.03125 51.304688 142.238281 53.101562 C 141.441406 54.898438 140.367188 56.433594 139.007812 57.707031 C 137.648438 58.984375 136.042969 59.96875 134.179688 60.664062 C 132.316406 61.359375 130.339844 61.707031 128.246094 61.707031 C 126.148438 61.707031 124.171875 61.359375 122.3125 60.664062 C 120.449219 59.96875 118.839844 58.984375 117.480469 57.707031 C 116.125 56.433594 115.046875 54.898438 114.253906 53.101562 C 113.457031 51.304688 113.058594 49.304688 113.058594 47.101562 " fill-opacity="1" fill-rule="evenodd"/></g></svg>