<svg xmlns="http://www.w3.org/2000/svg" xmlns:xlink="http://www.w3.org/1999/xlink" width="220" zoomAndPan="magnify" viewBox="0 0 165 82.499998" height="110" preserveAspectRatio="xMidYMid meet" version="1.0"><defs><clipPath id="43357736b5"><path d="M 0.496094 0 L 164.503906 0 L 164.503906 82.003906 L 0.496094 82.003906 Z M 0.496094 0 " clip-rule="nonzero"/></clipPath><clipPath id="85fa3d1c4e"><path d="M 9 24.027344 L 40 24.027344 L 40 39 L 9 39 Z M 9 24.027344 " clip-rule="nonzero"/></clipPath></defs><g clip-path="url(#43357736b5)"><path fill="#ffffff" d="M 0.496094 0 L 164.503906 0 L 164.503906 82.003906 L 0.496094 82.003906 Z M 0.496094 0 " fill-opacity="1" fill-rule="nonzero"/><path fill="#ffffff" d="M 0.496094 0 L 164.503906 0 L 164.503906 82.003906 L 0.496094 82.003906 Z M 0.496094 0 " fill-opacity="1" fill-rule="nonzero"/></g><g clip-path="url(#85fa3d1c4e)"><path fill="#020304" d="M 14.710938 38.457031 C 14.808594 38.058594 15.003906 37.46875 15.105469 36.972656 C 15.496094 35.589844 16.179688 34.207031 17.15625 33.117188 C 17.941406 32.03125 19.113281 31.042969 20.386719 30.351562 C 21.65625 29.660156 23.125 29.265625 24.789062 29.265625 C 26.253906 29.265625 27.820312 29.5625 28.992188 30.253906 C 30.265625 30.945312 31.339844 31.734375 32.222656 32.824219 C 33.199219 33.910156 33.882812 35.195312 34.277344 36.578125 C 34.375 37.171875 34.570312 37.664062 34.667969 38.355469 L 39.949219 38.355469 C 39.851562 37.269531 39.558594 36.183594 39.167969 35.09375 C 38.480469 33.117188 37.40625 31.339844 36.035156 29.757812 C 34.667969 28.277344 33.003906 26.894531 31.144531 25.90625 C 29.289062 24.917969 27.234375 24.421875 24.886719 24.421875 C 22.734375 24.421875 20.484375 24.816406 18.625 25.804688 C 16.765625 26.792969 15.105469 28.277344 13.734375 29.757812 C 12.363281 31.242188 11.289062 32.921875 10.507812 34.898438 C 10.113281 35.984375 9.722656 37.269531 9.527344 38.457031 Z M 14.710938 38.457031 " fill-opacity="1" fill-rule="nonzero"/></g><path fill="#367171" d="M 34.765625 43.988281 C 34.667969 44.582031 34.472656 45.078125 34.375 45.472656 C 33.984375 46.855469 33.296875 48.238281 32.320312 49.324219 C 31.535156 50.414062 30.363281 51.402344 29.089844 52.09375 C 27.820312 52.785156 26.351562 53.179688 24.691406 53.179688 C 23.027344 53.179688 21.65625 52.882812 20.484375 52.191406 C 19.308594 51.5 18.136719 50.710938 17.15625 49.621094 C 16.179688 48.535156 15.496094 47.25 15.105469 45.769531 C 15.003906 45.175781 14.808594 44.679688 14.710938 43.988281 L 9.527344 43.988281 C 9.625 45.078125 9.917969 46.164062 10.507812 47.449219 C 11.191406 49.425781 12.265625 51.203125 13.636719 52.785156 C 15.003906 54.265625 16.667969 55.550781 18.527344 56.539062 C 20.484375 57.527344 22.441406 57.921875 24.789062 57.921875 C 26.941406 57.921875 28.992188 57.527344 30.949219 56.539062 C 32.90625 55.550781 34.472656 54.464844 35.839844 52.984375 C 37.210938 51.5 38.285156 49.722656 39.070312 47.746094 C 39.460938 46.65625 39.851562 45.371094 40.046875 44.1875 L 34.765625 44.1875 C 34.765625 44.089844 34.765625 43.988281 34.765625 43.988281 Z M 34.765625 43.988281 " fill-opacity="1" fill-rule="nonzero"/><path fill="#367171" d="M 50.710938 44.089844 L 55.796875 44.089844 L 55.796875 57.726562 L 50.710938 57.726562 Z M 50.710938 44.089844 " fill-opacity="1" fill-rule="nonzero"/><path fill="#367171" d="M 71.835938 44.089844 L 71.835938 48.632812 L 68.414062 44.089844 L 62.054688 44.089844 L 72.816406 57.726562 L 77.023438 57.726562 L 77.023438 44.089844 Z M 71.835938 44.089844 " fill-opacity="1" fill-rule="nonzero"/><path fill="#020304" d="M 50.710938 38.457031 L 50.710938 29.5625 L 67.242188 29.5625 L 67.242188 25.015625 L 45.71875 25.015625 L 45.71875 38.457031 Z M 50.710938 38.457031 " fill-opacity="1" fill-rule="nonzero"/><path fill="#020304" d="M 77.21875 38.457031 L 77.21875 29.5625 L 93.652344 29.5625 L 93.652344 25.015625 L 72.035156 25.015625 L 72.035156 38.457031 Z M 77.21875 38.457031 " fill-opacity="1" fill-rule="nonzero"/><path fill="#777777" d="M 104.898438 55.847656 L 100.5 55.847656 L 99.714844 57.824219 L 98.445312 57.824219 L 101.964844 49.03125 L 103.335938 49.03125 L 106.855469 57.824219 L 105.585938 57.824219 Z M 100.792969 54.859375 L 104.605469 54.859375 L 102.652344 49.917969 Z M 100.792969 54.859375 " fill-opacity="1" fill-rule="nonzero"/><path fill="#777777" d="M 112.921875 48.832031 C 114.386719 48.832031 115.464844 49.523438 116.34375 50.511719 L 115.5625 51.105469 C 114.976562 50.414062 114.09375 49.820312 113.019531 49.820312 C 111.0625 49.820312 109.59375 51.300781 109.59375 53.378906 C 109.59375 55.453125 111.0625 56.933594 113.019531 56.933594 C 114.09375 56.933594 114.976562 56.34375 115.367188 55.945312 L 115.367188 54.167969 L 112.335938 54.167969 L 112.335938 53.179688 L 116.441406 53.179688 L 116.441406 56.34375 C 115.660156 57.332031 114.386719 57.824219 113.019531 57.824219 C 110.574219 57.824219 108.519531 56.046875 108.519531 53.277344 C 108.519531 50.511719 110.476562 48.832031 112.921875 48.832031 Z M 112.921875 48.832031 " fill-opacity="1" fill-rule="nonzero"/><path fill="#777777" d="M 119.28125 48.929688 L 125.050781 48.929688 L 125.050781 49.917969 L 120.453125 49.917969 L 120.453125 52.785156 L 124.953125 52.785156 L 124.953125 53.773438 L 120.453125 53.773438 L 120.453125 56.835938 L 125.050781 56.835938 L 125.050781 57.824219 L 119.28125 57.824219 Z M 119.28125 48.929688 " fill-opacity="1" fill-rule="nonzero"/><path fill="#777777" d="M 129.453125 50.710938 L 129.453125 57.824219 L 128.375 57.824219 L 128.375 49.03125 L 129.453125 49.03125 L 134.539062 56.046875 L 134.539062 49.03125 L 135.613281 49.03125 L 135.613281 57.824219 L 134.539062 57.824219 Z M 129.453125 50.710938 " fill-opacity="1" fill-rule="nonzero"/><path fill="#777777" d="M 137.765625 53.378906 C 137.765625 50.609375 139.722656 48.832031 142.265625 48.832031 C 143.929688 48.832031 144.808594 49.523438 145.691406 50.609375 L 144.710938 51.203125 C 144.125 50.511719 143.34375 49.917969 142.265625 49.917969 C 140.308594 49.917969 139.039062 51.402344 139.039062 53.476562 C 139.039062 55.550781 140.507812 57.035156 142.265625 57.035156 C 143.34375 57.035156 144.222656 56.441406 144.710938 55.75 L 145.691406 56.144531 C 145.003906 57.132812 143.929688 57.921875 142.265625 57.921875 C 139.820312 57.921875 137.765625 56.144531 137.765625 53.378906 Z M 137.765625 53.378906 " fill-opacity="1" fill-rule="nonzero"/><path fill="#777777" d="M 150.972656 54.070312 L 147.546875 48.929688 L 148.820312 48.929688 L 151.558594 53.082031 L 154.296875 48.929688 L 155.570312 48.929688 L 152.144531 54.070312 L 152.144531 57.824219 L 150.972656 57.824219 Z M 150.972656 54.070312 " fill-opacity="1" fill-rule="nonzero"/><path fill="#020304" d="M 98.445312 44.285156 L 98.445312 25.015625 L 101.476562 25.015625 L 101.476562 41.714844 L 111.746094 41.714844 L 111.746094 44.484375 L 98.445312 44.484375 Z M 98.445312 44.285156 " fill-opacity="1" fill-rule="nonzero"/><path fill="#020304" d="M 114.09375 25.015625 L 117.128906 25.015625 L 117.128906 44.285156 L 114.09375 44.285156 Z M 114.09375 25.015625 " fill-opacity="1" fill-rule="nonzero"/><path fill="#020304" d="M 124.464844 30.648438 L 124.464844 44.285156 L 121.429688 44.285156 L 121.429688 25.015625 L 123.777344 25.015625 L 134.734375 38.851562 L 134.734375 25.015625 L 137.765625 25.015625 L 137.765625 44.285156 L 135.320312 44.285156 Z M 124.464844 30.648438 " fill-opacity="1" fill-rule="nonzero"/><path fill="#020304" d="M 155.277344 41.519531 L 155.277344 44.285156 L 142.167969 44.285156 L 142.167969 25.015625 L 155.082031 25.015625 L 155.082031 27.78125 L 145.300781 27.78125 L 145.300781 33.316406 L 153.90625 33.316406 L 153.90625 35.785156 L 145.300781 35.785156 L 145.300781 41.714844 L 155.277344 41.714844 Z M 155.277344 41.519531 " fill-opacity="1" fill-rule="nonzero"/></svg>